<mxfile host="app.diagrams.net" modified="2023-05-29T21:03:32.156Z" agent="Mozilla/5.0 (Windows NT 10.0; Win64; x64) AppleWebKit/537.36 (KHTML, like Gecko) Chrome/113.0.0.0 Safari/537.36" etag="prIYL0zfV-Q7rJp1dw6P" version="21.3.5" type="device">
  <diagram name="PÃ¡gina-1" id="8MT44aVpwOrLZMwt-1Eo">
    <mxGraphModel dx="1717" dy="333" grid="1" gridSize="10" guides="1" tooltips="1" connect="1" arrows="1" fold="1" page="1" pageScale="1" pageWidth="827" pageHeight="1169" math="0" shadow="0">
      <root>
        <mxCell id="0" />
        <mxCell id="1" parent="0" />
        <mxCell id="CJ2sljLQCQVDHcY2sp9k-1" value="&amp;lt;&amp;lt;interface&amp;gt;&amp;gt;&lt;br&gt;IScenario" style="rounded=0;whiteSpace=wrap;html=1;" vertex="1" parent="1">
          <mxGeometry x="670" y="20" width="120" height="60" as="geometry" />
        </mxCell>
        <mxCell id="CJ2sljLQCQVDHcY2sp9k-2" value="" style="triangle;whiteSpace=wrap;html=1;" vertex="1" parent="1">
          <mxGeometry x="650" y="30" width="20" height="30" as="geometry" />
        </mxCell>
        <mxCell id="CJ2sljLQCQVDHcY2sp9k-3" value="ConsoleScenario" style="rounded=0;whiteSpace=wrap;html=1;fillColor=#d5e8d4;strokeColor=#82b366;" vertex="1" parent="1">
          <mxGeometry x="460" y="20" width="120" height="60" as="geometry" />
        </mxCell>
        <mxCell id="CJ2sljLQCQVDHcY2sp9k-6" value="" style="endArrow=none;html=1;rounded=0;" edge="1" parent="1">
          <mxGeometry width="50" height="50" relative="1" as="geometry">
            <mxPoint x="580" y="49.41" as="sourcePoint" />
            <mxPoint x="650" y="49.41" as="targetPoint" />
          </mxGeometry>
        </mxCell>
        <mxCell id="CJ2sljLQCQVDHcY2sp9k-7" value="Character" style="rounded=0;whiteSpace=wrap;html=1;" vertex="1" parent="1">
          <mxGeometry x="150" y="70" width="120" height="60" as="geometry" />
        </mxCell>
        <mxCell id="CJ2sljLQCQVDHcY2sp9k-8" value="" style="rhombus;whiteSpace=wrap;html=1;strokeColor=#000000;fillColor=#000000;" vertex="1" parent="1">
          <mxGeometry x="430" y="30" width="30" height="30" as="geometry" />
        </mxCell>
        <mxCell id="CJ2sljLQCQVDHcY2sp9k-9" value="" style="endArrow=none;html=1;rounded=0;exitX=0.413;exitY=-0.01;exitDx=0;exitDy=0;exitPerimeter=0;" edge="1" parent="1" source="CJ2sljLQCQVDHcY2sp9k-7">
          <mxGeometry width="50" height="50" relative="1" as="geometry">
            <mxPoint x="270" y="44.41" as="sourcePoint" />
            <mxPoint x="430" y="44.41" as="targetPoint" />
            <Array as="points">
              <mxPoint x="200" y="44" />
            </Array>
          </mxGeometry>
        </mxCell>
        <mxCell id="CJ2sljLQCQVDHcY2sp9k-11" value="" style="triangle;whiteSpace=wrap;html=1;rotation=-90;" vertex="1" parent="1">
          <mxGeometry x="195" y="125" width="20" height="30" as="geometry" />
        </mxCell>
        <mxCell id="CJ2sljLQCQVDHcY2sp9k-12" value="" style="endArrow=none;html=1;rounded=0;" edge="1" parent="1">
          <mxGeometry width="50" height="50" relative="1" as="geometry">
            <mxPoint x="205" y="180" as="sourcePoint" />
            <mxPoint x="204.71" y="150" as="targetPoint" />
          </mxGeometry>
        </mxCell>
        <mxCell id="CJ2sljLQCQVDHcY2sp9k-13" value="" style="endArrow=none;html=1;rounded=0;" edge="1" parent="1">
          <mxGeometry width="50" height="50" relative="1" as="geometry">
            <mxPoint x="90" y="180" as="sourcePoint" />
            <mxPoint x="390" y="180" as="targetPoint" />
          </mxGeometry>
        </mxCell>
        <mxCell id="CJ2sljLQCQVDHcY2sp9k-14" value="Elf" style="rounded=0;whiteSpace=wrap;html=1;" vertex="1" parent="1">
          <mxGeometry x="50" y="190" width="80" height="50" as="geometry" />
        </mxCell>
        <mxCell id="CJ2sljLQCQVDHcY2sp9k-15" value="Dwarves" style="rounded=0;whiteSpace=wrap;html=1;" vertex="1" parent="1">
          <mxGeometry x="150" y="190" width="80" height="50" as="geometry" />
        </mxCell>
        <mxCell id="CJ2sljLQCQVDHcY2sp9k-16" value="Wizard" style="rounded=0;whiteSpace=wrap;html=1;" vertex="1" parent="1">
          <mxGeometry x="250" y="190" width="80" height="50" as="geometry" />
        </mxCell>
        <mxCell id="CJ2sljLQCQVDHcY2sp9k-17" value="Troll" style="rounded=0;whiteSpace=wrap;html=1;" vertex="1" parent="1">
          <mxGeometry x="350" y="190" width="80" height="50" as="geometry" />
        </mxCell>
        <mxCell id="CJ2sljLQCQVDHcY2sp9k-18" value="" style="endArrow=none;html=1;rounded=0;" edge="1" parent="1">
          <mxGeometry width="50" height="50" relative="1" as="geometry">
            <mxPoint x="390" y="190" as="sourcePoint" />
            <mxPoint x="389.83" y="180" as="targetPoint" />
          </mxGeometry>
        </mxCell>
        <mxCell id="CJ2sljLQCQVDHcY2sp9k-19" value="" style="endArrow=none;html=1;rounded=0;" edge="1" parent="1" source="CJ2sljLQCQVDHcY2sp9k-17">
          <mxGeometry width="50" height="50" relative="1" as="geometry">
            <mxPoint x="400" y="200" as="sourcePoint" />
            <mxPoint x="399.83" y="190" as="targetPoint" />
          </mxGeometry>
        </mxCell>
        <mxCell id="CJ2sljLQCQVDHcY2sp9k-20" value="" style="endArrow=none;html=1;rounded=0;" edge="1" parent="1">
          <mxGeometry width="50" height="50" relative="1" as="geometry">
            <mxPoint x="285" y="190" as="sourcePoint" />
            <mxPoint x="284.83" y="180" as="targetPoint" />
          </mxGeometry>
        </mxCell>
        <mxCell id="CJ2sljLQCQVDHcY2sp9k-21" value="" style="endArrow=none;html=1;rounded=0;" edge="1" parent="1">
          <mxGeometry width="50" height="50" relative="1" as="geometry">
            <mxPoint x="186" y="190" as="sourcePoint" />
            <mxPoint x="185.82999999999998" y="180" as="targetPoint" />
          </mxGeometry>
        </mxCell>
        <mxCell id="CJ2sljLQCQVDHcY2sp9k-22" value="" style="endArrow=none;html=1;rounded=0;" edge="1" parent="1">
          <mxGeometry width="50" height="50" relative="1" as="geometry">
            <mxPoint x="91" y="190" as="sourcePoint" />
            <mxPoint x="90.82999999999998" y="180" as="targetPoint" />
          </mxGeometry>
        </mxCell>
        <mxCell id="CJ2sljLQCQVDHcY2sp9k-23" value="Encounter" style="rounded=0;whiteSpace=wrap;html=1;" vertex="1" parent="1">
          <mxGeometry x="540" y="200" width="120" height="60" as="geometry" />
        </mxCell>
        <mxCell id="CJ2sljLQCQVDHcY2sp9k-25" style="edgeStyle=orthogonalEdgeStyle;rounded=0;orthogonalLoop=1;jettySize=auto;html=1;entryX=1;entryY=0.5;entryDx=0;entryDy=0;" edge="1" parent="1" source="CJ2sljLQCQVDHcY2sp9k-24" target="CJ2sljLQCQVDHcY2sp9k-7">
          <mxGeometry relative="1" as="geometry">
            <Array as="points">
              <mxPoint x="580" y="100" />
            </Array>
          </mxGeometry>
        </mxCell>
        <mxCell id="CJ2sljLQCQVDHcY2sp9k-24" value="" style="rhombus;whiteSpace=wrap;html=1;" vertex="1" parent="1">
          <mxGeometry x="560" y="160" width="40" height="40" as="geometry" />
        </mxCell>
        <mxCell id="CJ2sljLQCQVDHcY2sp9k-26" value="&amp;lt;&amp;lt;interface&amp;gt;&amp;gt;&lt;br&gt;IReporter" style="rounded=0;whiteSpace=wrap;html=1;" vertex="1" parent="1">
          <mxGeometry x="780" y="100" width="120" height="60" as="geometry" />
        </mxCell>
        <mxCell id="CJ2sljLQCQVDHcY2sp9k-28" style="edgeStyle=orthogonalEdgeStyle;rounded=0;orthogonalLoop=1;jettySize=auto;html=1;entryX=0.333;entryY=1.043;entryDx=0;entryDy=0;entryPerimeter=0;endArrow=block;endFill=0;strokeWidth=1;endSize=14;startSize=11;" edge="1" parent="1" source="CJ2sljLQCQVDHcY2sp9k-27" target="CJ2sljLQCQVDHcY2sp9k-26">
          <mxGeometry relative="1" as="geometry" />
        </mxCell>
        <mxCell id="CJ2sljLQCQVDHcY2sp9k-27" value="ConsoleReporter" style="rounded=0;whiteSpace=wrap;html=1;fillColor=#d5e8d4;strokeColor=#82b366;" vertex="1" parent="1">
          <mxGeometry x="760" y="240" width="120" height="60" as="geometry" />
        </mxCell>
        <mxCell id="CJ2sljLQCQVDHcY2sp9k-31" style="edgeStyle=orthogonalEdgeStyle;rounded=0;orthogonalLoop=1;jettySize=auto;html=1;entryX=0;entryY=0.5;entryDx=0;entryDy=0;" edge="1" parent="1" source="CJ2sljLQCQVDHcY2sp9k-29" target="CJ2sljLQCQVDHcY2sp9k-26">
          <mxGeometry relative="1" as="geometry">
            <Array as="points">
              <mxPoint x="675" y="130" />
            </Array>
          </mxGeometry>
        </mxCell>
        <mxCell id="CJ2sljLQCQVDHcY2sp9k-29" value="" style="rhombus;whiteSpace=wrap;html=1;" vertex="1" parent="1">
          <mxGeometry x="660" y="210" width="30" height="30" as="geometry" />
        </mxCell>
        <mxCell id="CJ2sljLQCQVDHcY2sp9k-37" style="edgeStyle=orthogonalEdgeStyle;rounded=0;orthogonalLoop=1;jettySize=auto;html=1;endArrow=none;endFill=0;" edge="1" parent="1" source="CJ2sljLQCQVDHcY2sp9k-32">
          <mxGeometry relative="1" as="geometry">
            <mxPoint x="560" y="260" as="targetPoint" />
            <Array as="points">
              <mxPoint x="505" y="280" />
              <mxPoint x="600" y="280" />
              <mxPoint x="600" y="260" />
            </Array>
          </mxGeometry>
        </mxCell>
        <mxCell id="CJ2sljLQCQVDHcY2sp9k-32" value="ExchangeEncounter" style="rounded=0;whiteSpace=wrap;html=1;" vertex="1" parent="1">
          <mxGeometry x="440" y="310" width="130" height="40" as="geometry" />
        </mxCell>
        <mxCell id="CJ2sljLQCQVDHcY2sp9k-36" style="edgeStyle=orthogonalEdgeStyle;rounded=0;orthogonalLoop=1;jettySize=auto;html=1;entryX=0.5;entryY=1;entryDx=0;entryDy=0;" edge="1" parent="1" source="CJ2sljLQCQVDHcY2sp9k-33" target="CJ2sljLQCQVDHcY2sp9k-23">
          <mxGeometry relative="1" as="geometry">
            <Array as="points">
              <mxPoint x="645" y="280" />
              <mxPoint x="600" y="280" />
            </Array>
          </mxGeometry>
        </mxCell>
        <mxCell id="CJ2sljLQCQVDHcY2sp9k-33" value="AttackEncounter" style="rounded=0;whiteSpace=wrap;html=1;" vertex="1" parent="1">
          <mxGeometry x="580" y="310" width="100" height="40" as="geometry" />
        </mxCell>
        <mxCell id="CJ2sljLQCQVDHcY2sp9k-38" value="CharacterFactory" style="rounded=0;whiteSpace=wrap;html=1;" vertex="1" parent="1">
          <mxGeometry x="680" y="440" width="120" height="60" as="geometry" />
        </mxCell>
        <mxCell id="CJ2sljLQCQVDHcY2sp9k-39" value="ItemFactory" style="rounded=0;whiteSpace=wrap;html=1;" vertex="1" parent="1">
          <mxGeometry x="550" y="440" width="120" height="60" as="geometry" />
        </mxCell>
        <mxCell id="CJ2sljLQCQVDHcY2sp9k-40" value="EncounterFactory" style="rounded=0;whiteSpace=wrap;html=1;" vertex="1" parent="1">
          <mxGeometry x="420" y="440" width="120" height="60" as="geometry" />
        </mxCell>
        <mxCell id="CJ2sljLQCQVDHcY2sp9k-42" style="edgeStyle=orthogonalEdgeStyle;rounded=0;orthogonalLoop=1;jettySize=auto;html=1;" edge="1" parent="1" source="CJ2sljLQCQVDHcY2sp9k-41" target="CJ2sljLQCQVDHcY2sp9k-43">
          <mxGeometry relative="1" as="geometry">
            <mxPoint x="40" y="300" as="targetPoint" />
          </mxGeometry>
        </mxCell>
        <mxCell id="CJ2sljLQCQVDHcY2sp9k-41" value="" style="rhombus;whiteSpace=wrap;html=1;strokeColor=#000000;fillColor=#000000;" vertex="1" parent="1">
          <mxGeometry x="120" y="85" width="30" height="30" as="geometry" />
        </mxCell>
        <mxCell id="CJ2sljLQCQVDHcY2sp9k-43" value="&amp;lt;&amp;lt;interface&amp;gt;&amp;gt;&lt;br&gt;IItem" style="rounded=0;whiteSpace=wrap;html=1;" vertex="1" parent="1">
          <mxGeometry x="-20" y="270" width="120" height="60" as="geometry" />
        </mxCell>
        <mxCell id="CJ2sljLQCQVDHcY2sp9k-48" style="edgeStyle=orthogonalEdgeStyle;rounded=0;orthogonalLoop=1;jettySize=auto;html=1;entryX=0.5;entryY=1;entryDx=0;entryDy=0;endArrow=block;endFill=0;" edge="1" parent="1" source="CJ2sljLQCQVDHcY2sp9k-44" target="CJ2sljLQCQVDHcY2sp9k-43">
          <mxGeometry relative="1" as="geometry">
            <Array as="points">
              <mxPoint x="-100" y="360" />
              <mxPoint x="40" y="360" />
            </Array>
          </mxGeometry>
        </mxCell>
        <mxCell id="CJ2sljLQCQVDHcY2sp9k-44" value="&amp;lt;&amp;lt;interface&amp;gt;&amp;gt;&lt;br&gt;IAttackItem" style="rounded=0;whiteSpace=wrap;html=1;" vertex="1" parent="1">
          <mxGeometry x="-160" y="380" width="120" height="60" as="geometry" />
        </mxCell>
        <mxCell id="CJ2sljLQCQVDHcY2sp9k-59" style="edgeStyle=orthogonalEdgeStyle;rounded=0;orthogonalLoop=1;jettySize=auto;html=1;entryX=0.578;entryY=1.023;entryDx=0;entryDy=0;entryPerimeter=0;" edge="1" parent="1" source="CJ2sljLQCQVDHcY2sp9k-45" target="CJ2sljLQCQVDHcY2sp9k-44">
          <mxGeometry relative="1" as="geometry" />
        </mxCell>
        <mxCell id="CJ2sljLQCQVDHcY2sp9k-60" style="edgeStyle=orthogonalEdgeStyle;rounded=0;orthogonalLoop=1;jettySize=auto;html=1;entryX=0.5;entryY=1;entryDx=0;entryDy=0;" edge="1" parent="1" source="CJ2sljLQCQVDHcY2sp9k-45" target="CJ2sljLQCQVDHcY2sp9k-46">
          <mxGeometry relative="1" as="geometry" />
        </mxCell>
        <mxCell id="CJ2sljLQCQVDHcY2sp9k-45" value="&amp;lt;&amp;lt;interface&amp;gt;&amp;gt;&lt;br&gt;IGemas" style="rounded=0;whiteSpace=wrap;html=1;" vertex="1" parent="1">
          <mxGeometry x="-90" y="480" width="120" height="60" as="geometry" />
        </mxCell>
        <mxCell id="CJ2sljLQCQVDHcY2sp9k-49" style="edgeStyle=orthogonalEdgeStyle;rounded=0;orthogonalLoop=1;jettySize=auto;html=1;endArrow=block;endFill=0;" edge="1" parent="1" source="CJ2sljLQCQVDHcY2sp9k-46">
          <mxGeometry relative="1" as="geometry">
            <mxPoint x="40" y="330" as="targetPoint" />
          </mxGeometry>
        </mxCell>
        <mxCell id="CJ2sljLQCQVDHcY2sp9k-46" value="&amp;lt;&amp;lt;interface&amp;gt;&amp;gt;&lt;br&gt;IDefenseItem" style="rounded=0;whiteSpace=wrap;html=1;" vertex="1" parent="1">
          <mxGeometry x="-20" y="380" width="120" height="60" as="geometry" />
        </mxCell>
        <mxCell id="CJ2sljLQCQVDHcY2sp9k-52" style="edgeStyle=orthogonalEdgeStyle;rounded=0;orthogonalLoop=1;jettySize=auto;html=1;entryX=1;entryY=0.5;entryDx=0;entryDy=0;" edge="1" parent="1" source="CJ2sljLQCQVDHcY2sp9k-51" target="CJ2sljLQCQVDHcY2sp9k-43">
          <mxGeometry relative="1" as="geometry">
            <Array as="points">
              <mxPoint x="320" y="300" />
            </Array>
          </mxGeometry>
        </mxCell>
        <mxCell id="CJ2sljLQCQVDHcY2sp9k-51" value="RandomObjects" style="rounded=0;whiteSpace=wrap;html=1;" vertex="1" parent="1">
          <mxGeometry x="260" y="380" width="120" height="60" as="geometry" />
        </mxCell>
        <mxCell id="CJ2sljLQCQVDHcY2sp9k-57" style="edgeStyle=orthogonalEdgeStyle;rounded=0;orthogonalLoop=1;jettySize=auto;html=1;entryX=0;entryY=0.5;entryDx=0;entryDy=0;" edge="1" parent="1" source="CJ2sljLQCQVDHcY2sp9k-53" target="CJ2sljLQCQVDHcY2sp9k-44">
          <mxGeometry relative="1" as="geometry">
            <Array as="points">
              <mxPoint x="-260" y="410" />
            </Array>
          </mxGeometry>
        </mxCell>
        <mxCell id="CJ2sljLQCQVDHcY2sp9k-53" value="Arco&lt;br&gt;ArcoConFlecha&lt;br&gt;BastonMagico&lt;br&gt;Espada&lt;br&gt;Flecha&lt;br&gt;GuanteDeGemas&lt;br&gt;Palo&lt;br&gt;Magic" style="rounded=0;whiteSpace=wrap;html=1;" vertex="1" parent="1">
          <mxGeometry x="-320" y="500" width="120" height="140" as="geometry" />
        </mxCell>
        <mxCell id="CJ2sljLQCQVDHcY2sp9k-58" style="edgeStyle=orthogonalEdgeStyle;rounded=0;orthogonalLoop=1;jettySize=auto;html=1;entryX=1;entryY=0.5;entryDx=0;entryDy=0;" edge="1" parent="1" source="CJ2sljLQCQVDHcY2sp9k-56" target="CJ2sljLQCQVDHcY2sp9k-46">
          <mxGeometry relative="1" as="geometry">
            <Array as="points">
              <mxPoint x="170" y="410" />
            </Array>
          </mxGeometry>
        </mxCell>
        <mxCell id="CJ2sljLQCQVDHcY2sp9k-56" value="Coraza&lt;br&gt;Robes&lt;br&gt;Robes" style="rounded=0;whiteSpace=wrap;html=1;" vertex="1" parent="1">
          <mxGeometry x="110" y="480" width="120" height="140" as="geometry" />
        </mxCell>
        <mxCell id="CJ2sljLQCQVDHcY2sp9k-62" style="edgeStyle=orthogonalEdgeStyle;rounded=0;orthogonalLoop=1;jettySize=auto;html=1;entryX=0.5;entryY=1;entryDx=0;entryDy=0;" edge="1" parent="1" source="CJ2sljLQCQVDHcY2sp9k-61" target="CJ2sljLQCQVDHcY2sp9k-45">
          <mxGeometry relative="1" as="geometry" />
        </mxCell>
        <mxCell id="CJ2sljLQCQVDHcY2sp9k-61" value="GemaAzul&lt;br&gt;GemaRoja&lt;br&gt;GemaRosa&lt;br&gt;GemaVioleta" style="rounded=0;whiteSpace=wrap;html=1;" vertex="1" parent="1">
          <mxGeometry x="-90" y="585" width="120" height="140" as="geometry" />
        </mxCell>
        <mxCell id="CJ2sljLQCQVDHcY2sp9k-64" style="edgeStyle=orthogonalEdgeStyle;rounded=0;orthogonalLoop=1;jettySize=auto;html=1;entryX=0.5;entryY=1;entryDx=0;entryDy=0;" edge="1" parent="1" source="CJ2sljLQCQVDHcY2sp9k-63" target="CJ2sljLQCQVDHcY2sp9k-23">
          <mxGeometry relative="1" as="geometry">
            <Array as="points">
              <mxPoint x="730" y="280" />
              <mxPoint x="600" y="280" />
            </Array>
          </mxGeometry>
        </mxCell>
        <mxCell id="CJ2sljLQCQVDHcY2sp9k-63" value="Encounter" style="rounded=0;whiteSpace=wrap;html=1;" vertex="1" parent="1">
          <mxGeometry x="690" y="310" width="90" height="40" as="geometry" />
        </mxCell>
      </root>
    </mxGraphModel>
  </diagram>
</mxfile>
